# xmcd CD database file
#
# Track frame offsets:
#	150
#	19498
#	38275
#	57558
#	76313
#	84658
#	106890
#	142918
#	196483
#	226788
#
# Disc length: 3129 seconds
#
# Revision: 0
# Processed by: cddbd v1.5.1PL2 Copyright (c) Steve Scherf et al.
# Submitted via: CDex 1.40Release
#
DISCID=760c370a
DTITLE=Terios - ANGELIUM Sound Track and Drama 〜Angel Whisper〜 DISC B
DYEAR=2003
DGENRE=Game
TTITLE0=裸の天使
TTITLE1=春色＊秋桜＜コスモス＞　　
TTITLE2=裸の天使(カラオケ)
TTITLE3=春色＊秋桜＜コスモス＞（カラオケ）
TTITLE4=裸の天使(ゲームサイズ)
TTITLE5=ドラマ「天使は舞い降りた」Aパート
TTITLE6=ドラマ「天使は舞い降りた」Bパート
TTITLE7=ドラマ「天使は舞い降りた」Cパート
TTITLE8=ドラマ「天使は舞い降りた」Dパート
TTITLE9=春色＊秋桜＜コスモス＞（ゲームサイズ）
EXTD=YEAR: 2003 ID3G: 36
EXTT0=
EXTT1=
EXTT2=
EXTT3=
EXTT4=
EXTT5=
EXTT6=
EXTT7=
EXTT8=
EXTT9=
PLAYORDER=
